<?xml version="1.0" encoding="utf-8"?>
<!-- Generator: Adobe Illustrator 18.1.1, SVG Export Plug-In . SVG Version: 6.00 Build 0)  -->
<svg version="1.1" id="Layer_1" xmlns="http://www.w3.org/2000/svg" xmlns:xlink="http://www.w3.org/1999/xlink" x="0px" y="0px"
	 viewBox="0 0 588.7 76.1" enable-background="new 0 0 588.7 76.1" xml:space="preserve">
<g>
	<path fill="#FFFFFF" d="M300.1,49.6v0.1C300.1,49.7,300.1,49.6,300.1,49.6C300.1,49.6,300.1,49.6,300.1,49.6z"/>
	<path fill="#FFFFFF" d="M326.3,72.7c0,0.1-0.1,0.2-0.1,0.2c0-0.1-0.1-0.1-0.1-0.2H326.3z"/>
	<path fill="#FFFFFF" d="M329.2,53.1v0.2c-0.1-0.1-0.3-0.2-0.5-0.2H329.2z"/>
	<path fill="#FFFFFF" d="M399.3,1.4v5.8c-6.4-4.2-14-6.6-22.1-6.6c-21,0-38.1,16.9-38.1,37.5s17.1,37.5,38.1,37.5
		c13.7,0,26.2-7,32.9-17.8L395,47.5c-3.4,6-11,9.7-17.9,9.7c-10,0-15.5-9.5-15.5-19.1s5.5-19.1,15.5-19.1c6.5,0,12.8,3.9,16.4,9.5
		h5.8H413v-5.8V1.4H399.3z"/>
	<path fill="#FFFFFF" d="M458,76.1c-21.4,0-38.9-17.1-38.9-38.1S436.6,0,458,0c21.4,0,38.9,17.1,38.9,38.1S479.4,76.1,458,76.1z
		 M458,18.9c-10.2,0-14.4,9.3-14.4,19.1s4.1,19.2,14.4,19.2c10.2,0,15.1-9.4,15.1-19.2S468.3,18.9,458,18.9z"/>
	<polygon fill="#FFFFFF" points="588.7,19 588.7,1.4 556.8,1.4 556.8,19 561.2,19 561.2,42.7 541.3,9 541.3,1.4 504.6,1.4 504.6,19 
		512.7,19 512.7,57.2 504.4,57.2 504.4,74.3 538.4,74.3 538.4,57.2 533.2,57.2 533.2,29.9 549.2,57.2 546.4,57.2 546.4,74.3 
		588.6,74.3 588.6,57.2 581.6,57.2 581.6,19 	"/>
	<path fill="#FFFFFF" d="M56.6,30.9h-0.3c-0.4,0-0.6,0.2-0.6,0.6c0,0.4,0.2,0.6,0.6,0.6h0.2c0.4,0,0.6-0.2,0.6-0.6
		C57.2,31.2,57,31,56.6,30.9z M68.1,56.2c-5.1,1.6-7.6,2.8-7.7,3.7c0.1,0,0.2,0,0.2-0.1v0.7h-0.4c-0.4,0-0.8-0.2-1.3-0.6h-0.5
		c-0.5,0-1,0.2-1.4,0.6h-3.7c-0.7,0-1.2,0.3-1.4,1c0,0.9,0.6,1.7,1.8,2.3h1.4c0.3,0,1.2,0.3,2.7,0.9c1.3,1.1,2.7,1.6,4.1,1.6
		l0.9-0.4c0.9-1.2,1.6-1.7,1.9-1.7c4-3.7,6.2-6.3,6.9-7.9v-0.9C71.1,55.8,69.9,56,68.1,56.2z M64.2,62.5h-0.2
		c-0.1,0-0.1-0.1-0.2-0.2v-0.2c0.1,0,0.1,0,0.3-0.1l0.1,0.1V62.5z M52.2,3.6c-0.5,0.4-0.8,0.9-0.8,1.5v1.8c0.3,1.9,1.2,2.8,2.5,2.8
		l0.8-0.2c0.8,0,2.2,0.2,4.3,0.6c1.2-0.7,1.8-1.3,1.8-1.7C58.7,6.5,55.9,4.9,52.2,3.6z M76,29.1c-2.6-8.4-7-15-13.4-19.7
		c-1,0-1.5,0.5-1.5,1.4v0.4c0,0.5,0.2,1,0.6,1.5v0.7c0,0.1-0.1,0.2-0.2,0.2h-0.2c0-0.6-0.7-1.4-2.1-2.4c-2.8-0.3-4.4-0.6-5-0.8
		c-2.1,0.4-3.6,0.6-4.5,0.6l-0.2-0.1c0.7-2.4,1.1-3.7,1.1-4V4.3c0-0.8-0.3-1.3-0.8-1.4h-1c-0.1,1.5-0.4,2.2-0.7,2.2
		c-1.8-0.4-3-0.9-3.5-1.4h-0.4c-1.6,1.5-3,2.2-4.1,2.2c-1.4,0-2.5,1.6-3.3,4.7c-1,0-1.7,1.4-2.1,4.2c0.5,0.8,0.9,1.2,1.3,1.2
		c0.5,1.4,1.4,2.2,2.9,2.2c5.4,0,10.5,3.1,15.1,9.5c0.6,0,0.9-0.5,1.2-1.4c0.7,0,1.1,0.4,1.3,0.9l-0.2,1c0,1.1,1.4,1.6,4.2,1.6
		c0-0.1,0.1-0.2,0.4-0.2h0.5c0.7,1,1.7,1.6,3.2,1.6c0.4,0,0.9-0.1,1.5-0.2c0.8,0.7,2,1.3,3.4,2c1.5-0.1,2.7-0.2,3.7-0.2
		c1.4,0.5,2.3,0.8,2.7,0.8l0.6-0.3L76,29.1z M47.2,17.7c-0.1,0-0.6-0.1-1.5-0.3v-0.2l1.2-0.3h0.2c0.1,0,0.2,0.2,0.4,0.5L47.2,17.7z
		 M51.8,18.5L51.8,18.5c-0.7-0.3-1.1-1.5-1.1-3.6l-1.2-2.4v-0.3h0.1c1.2,0.8,1.9,1.5,2.2,2.2V15c0,0.5-0.1,1-0.4,1.6l0.6,1.6
		L51.8,18.5z M55.1,25c0,0.1-0.1,0.2-0.2,0.2h-0.2c-0.1,0-0.1-0.1-0.2-0.2v-0.8c-0.2-0.2-0.3-0.3-0.4-0.5c-0.1,0-0.3-0.1-0.4-0.2
		c-0.1,0-0.2-0.7-0.2-2.3h0.3v0.6c0,0.8,0.1,1.4,0.3,1.9c0.1,0,0.2,0.1,0.4,0.1v0.5c0.1,0.2,0.3,0.3,0.5,0.3V25z M61.7,16.5h-0.4
		c-0.2,0-0.3-0.3-0.3-0.9v-0.8c0-0.1,0-0.1,0.1-0.2c0.4,0.2,0.6,0.5,0.6,1.1V16.5z M66.6,29.1h-0.2c-0.1,0-0.1-0.1-0.2-0.1
		c0-0.1,0.1-0.1,0.2-0.2c0.1,0,0.1,0.1,0.1,0.2V29.1z M28,5.3l-0.3,0.6v0.8c0,0.4,0.2,0.6,0.6,0.6h0.8c0-0.3,0.1-0.5,0.3-0.8
		C29,5.7,28.6,5.3,28,5.3z M38,1.3h-9.1c-0.8,0-1.3,0.3-1.4,1c0,0.8,0.8,1.8,2.4,3c1,3.9,1.9,6,2.8,6c1.2,0,2.5-0.8,4-2.5
		c0.5-2.7,1.9-4,4.1-4c0.6,0,1.6-0.8,3.2-2.3V1.8C42.6,1.4,40.6,1.3,38,1.3z M29.8,40.4h-0.6c-0.7,2.1-1.4,3.7-2.3,4.9
		c0.4,1.2,0.6,1.9,0.6,2l-0.9,2.8l-0.1,0.3l-0.4,1.3c0,0.6,0.9,1.1,2.8,1.7h0.8l0.2-1.2V41.6L29.8,40.4z M25.7,1.5v1.1h0.9V1.5H25.7
		z M18.5,1.3h-2.8c-0.4,0-0.6,0.2-0.6,0.7v0.3c1.6,0.7,2.6,1.1,2.8,1.1h0.5C19.1,3,19.6,2.5,19.7,2C19.7,1.6,19.3,1.3,18.5,1.3z
		 M20.8,71.2c-1.3,0.2-1.9,0.2-2,0.2L16.6,70c-0.6,0-1.2,0.6-1.8,1.8c-1.8,0.9-2.7,1.5-2.7,1.8V74l1.6,0.3h7.1c0.6,0,1.3-0.2,2-0.6
		L20.8,71.2z M9.1,42.2H8.4c-0.2,1.5-0.2,2.6-0.2,3.2v2c0,1.5,0.2,2.8,0.5,4h0.8l0.2-1.1c1.5-0.9,2.4-1.8,2.8-2.7
		C12.4,45.8,11.3,44,9.1,42.2z M30.9,15.1c-0.3,0-1.3,0.4-3,1.2c-1.8,0.6-3,1.6-3.5,2.9c-1.5,1-2.2,1.7-2.2,2c-2,1.6-3,2.7-3,3.3
		c0.1,0,0.2,0.1,0.2,0.3l3.6,1.8v0.8c-0.9-0.6-2.3-1.1-4.1-1.6c-1.5,0.8-2.2,1.3-2.2,1.4c-1.2,0.5-3.4,1-6.7,1.5
		c-1.2,0-1.8,1.1-1.8,3.2v3.6c0,1.8,0.9,3.7,2.8,5.7c2.7,3.9,4.5,5.8,5.3,5.8h3c0.6,0,2-0.6,4-1.8c1.4,0,2.9-2,4.5-5.9
		c0.3-2.1,0.7-3.9,1.2-5.3v-0.5c-1.5-2.6-2.9-4.3-4.1-5v-0.2h0.5l0.2,0.1c0,0.5,1.2,1.3,3.4,2.5c0.7-0.2,1-0.9,1-2v-8.3
		c0-0.8-0.2-1.2-0.6-1.2c0-0.5,0.3-0.9,0.8-1.1h4.3c0.4,0,0.6-0.2,0.6-0.6v-0.3C33.8,15.8,32.4,15.1,30.9,15.1z M10.4,38.2
		c-0.1,0-0.1-0.1-0.2-0.2c0-0.1,0.1-0.1,0.2-0.2c0.1,0,0.1,0.1,0.1,0.2S10.5,38.2,10.4,38.2z M17.5,39.3h-0.1V39h0.1V39.3z M28,8.8
		c0-1-0.3-1.8-1-2.4c0-1.8-0.6-2.7-1.8-2.7c-1.1,0.3-1.6,0.7-1.6,1.2h-0.8l-1,0.6c-0.6,0-1.3-0.2-1.9-0.4c-1.1,0-2.1,1-3.1,3
		c0.5,0.9,0.8,1.5,0.8,1.8V10c0,0.1-0.1,0.2-0.1,0.2h-0.1C16.5,9.4,15.9,9,15.6,9c-1,0.6-1.6,1.2-1.6,1.8c0,0.3,0.1,0.7,0.4,1.2
		c-0.4,0.6-0.6,1.3-0.6,2v1.9c-1,0.9-2.1,1.7-3.4,2.2c-1.3,0-2,2.2-2.4,6.7c0,2.1,0.7,3.2,2,3.2h1c0.3,0,0.5-0.1,0.5-0.3
		c4.7-0.8,7.1-2.4,7.1-4.6c3.1-2.9,4.7-4.4,4.7-4.7c0-1.1,0.7-1.9,2-2.3c2.4,0,4.2-1.3,5.6-3.8C30.7,11.7,29.7,10.5,28,8.8z
		 M16.4,15.2c0,0.1-0.1,0.2-0.2,0.2h-0.2c-0.1,0-0.1-0.1-0.2-0.2v-0.4h0.5V15.2z M7.2,2.9v0.9h0.9V2.9H7.2z M15.7,4.7V4
		c-0.7-1-1.7-1.5-3-1.5h-1c-0.9,0-2.1,0.3-3.6,0.9v0.8c0.3,0,0.5,0.1,0.9,0.3c0.3-0.2,0.5-0.3,0.7-0.3H10c0.1,0,0.2,0.1,0.2,0.2v0.2
		c0,0.4-1.1,0.6-3.3,0.7v0.6c0.9,0.6,1.4,1.1,1.4,1.3L9.7,7c0,1.1,1,1.9,3.1,2.5c1.7-1.1,2.7-1.9,3-2.4c0-0.6-0.3-1.2-0.8-1.9V5.1
		C15,4.9,15.2,4.8,15.7,4.7z M76.7,36.1c0-1.3-1.5-2.1-4.5-2.4c-0.7,0-1.6,0.3-2.6,0.8c0-0.7-2.1-1.4-6.3-2.2
		c-1.5,0-2.6-0.5-3.2-1.4h-0.7c-0.2,0-0.6,0.6-1.2,1.8c-1.2,0.5-1.9,1-1.9,1.4c0.1,0.9,0.2,1.7,0.2,2.2v2.2c0,4.2-1.4,7.9-4.1,11.2
		c-0.6,1.7-1.1,2.6-1.6,2.6c-2.7,2-4.9,3.4-6.5,4.1c-3.4,0.8-5.1,1.5-5.1,2.1c0.3,0.4,0.4,0.8,0.4,1.1c1,0.5,1.6,0.8,1.6,0.9
		l-0.2,0.1h-1.2c-1.9-2.1-3.6-3.1-5.1-3.1h-4.5C30,57.4,30,56.9,30,56c0-1-0.9-1.7-2.8-2h-1.9c0.2-1.8,0.6-3,1.3-3.7
		c0-0.1,0.1-0.1,0.1-0.1v-2.9c0-0.4-0.2-0.9-0.5-1.4c-1,0-3,1-5.9,3c-0.3,0-0.8-0.2-1.4-0.6c-0.9,0-2,0.6-3.3,1.9c0,1,1,2.7,3.1,4.9
		l5.7-0.4l0.1,0.2V55c-2.6,0.7-3.9,1.3-3.9,1.7c1.2,1.2,1.8,2.1,1.8,2.7v1.1h-1.3c-0.2,0-1.2-0.6-3-1.7c-0.4-1-1.3-2.2-2.8-3.7
		c-2-0.4-3.6-0.9-4.5-1.3c0,0.2-0.5,0.5-1.5,0.8c-0.6,1.4-1.3,2.1-1.8,2.1c-0.9,2.3-1.6,3.9-2.3,4.7c0.3,0.9,0.9,1.5,1.8,2v0.4
		c-0.4,1.3-0.6,2-0.6,2.4v0.8l0.3,1.2c1.7,0.4,2.5,0.7,2.5,1v0.2c0,0.1-0.5,0.3-1.4,0.6c0,0.8,0.6,1.5,1.7,2l1-0.6
		c2.4-0.4,4.1-1.2,5-2.5c0.7-0.8,1.3-2.4,1.7-4.5c-0.2-0.2-0.2-0.5-0.2-0.7v-0.4c0.2-1.3,0.4-1.9,0.7-1.9h0.8c0.1,0,0.2,0.1,0.2,0.2
		v0.6l-1,5.5c0,1.2,1,2,2.9,2.4c2.6,2.4,5,3.8,7.2,4.1h1.6c0.9,0,1.5-0.2,2-0.7c0.5,0.5,1.2,0.7,2,0.7h7.1c1.5,0,3.2-0.2,5.3-0.6
		c0.6-1.4,1.3-2.1,2-2.1h1.2l0.3,1.2h0.8l3.4-1v-0.8c-0.3,0-0.5,0-0.6-0.1c0-0.3,0.6-0.5,1.9-0.6l0.8,0.4c1.3-0.2,2.6-0.9,4-2.1
		v-0.7c-0.8,0-1.7-0.6-2.7-1.8c-3.1-0.3-5-0.7-5.6-1.4l-1.3,0.2c-0.1,0-0.1-0.1-0.1-0.2v-1.1c0.6-0.7,1-1.3,1-2
		c-0.7-0.6-1-1.1-1-1.5c0-0.1,0.6-0.4,1.8-1.1h0.4c0.6,0.5,1.2,0.8,1.7,0.8h1.4c2.5-0.7,3.8-1.3,3.8-1.6v-0.6
		c-1-1.8-1.6-2.8-1.6-3.1v-0.2h0.5c1.6,2.2,2.6,3.4,2.9,3.4c2.2-0.6,4.3-1.5,6.3-2.5c0-0.5-0.2-1.4-0.6-2.6c0,0,0.1-0.5,0.1-1.4
		c0.6,2.5,1.5,3.7,2.8,3.7h1c0.8,0,1.9-0.4,3.1-1c2.6-4.8,3.8-10.3,3.8-16.6L76.7,36.1z M32.6,68v1.4l-0.5,1.8h-0.1
		c-0.1,0-0.1-0.1-0.2-0.1v-0.8C31.9,69,32.2,68.2,32.6,68L32.6,68l0.1-0.1C32.7,67.9,32.6,68,32.6,68z M55.3,53.2c0-0.1,0-0.1,0-0.1
		c-0.6-0.3-0.9-0.5-0.9-0.6v-0.2c0-0.1,0.1-0.1,0.2-0.2h0.2c0.2,0,0.4,0.3,0.5,1c0.1,0,0.1,0.1,0.2,0.1H55.3z M63.1,45.4H63v-0.3
		h0.1V45.4z M64,43.2h-0.3c0,0,0,0,0,0.1v-0.1h0c0-0.1,0.1-0.1,0.2-0.1H64V43.2z M66.2,40.2c-0.2,0.4-0.5,0.6-0.9,0.8
		c-0.2,0-0.4,0-0.4-0.1c0.4-0.7,0.8-1,1.3-1V40.2z M67,38.6L67,38.6L67,38.6c-0.1,0.1-0.1,0.1-0.1,0.1v-0.1L67,38.6
		C66.9,38.6,66.9,38.6,67,38.6L67,38.6l0.1-0.1C67,38.5,67,38.5,67,38.6z M68.7,37.1c-0.1-0.1-0.2-0.1-0.3-0.1v-0.2l0.2-0.7h0.1
		l0.2,0.1C68.9,36.5,68.9,36.8,68.7,37.1z M73.3,46c0,0.1-0.4,0.3-1.2,0.7H72l-0.2-0.4c0.3-0.5,0.8-0.7,1.3-0.7
		c0.1,0,0.2,0.1,0.2,0.2V46z M5.1,1.3H1.8L1,1.8c0,0.9,0.5,1.4,1.4,1.4c0.4,0,1.5-0.3,3.2-0.8V2C5.7,1.6,5.5,1.4,5.1,1.3z M3.1,67.6
		c-0.8,0-1.2,0.3-1.4,0.9l0.6,1c0,0.5-0.1,0.8-0.4,0.9H1.7v-1.4c0-0.4-0.2-0.6-0.6-0.6H0.3l-0.3,1.3v0.6c0,0.6,0.1,1.1,0.2,1.6
		c0,1.6,0.7,2.4,2,2.4h2.4c1.1,0,1.7-0.3,1.9-1C5.3,69.5,4.2,67.6,3.1,67.6z M2.3,61.9c-1.5,0.5-2.2,1.3-2.2,2.2
		c0.1,1.9,0.6,2.8,1.6,2.8h0.4c2.2-0.3,3.3-1.2,3.3-2.7C5.1,62.7,4,61.9,2.3,61.9z M3.5,56.4H1.7c-1.1,0-1.6,0.5-1.6,1.6v2
		c0,0.9,0.5,1.4,1.4,1.4h0.6c2,0,3-1.6,3-4.8L3.5,56.4z M9.9,9.4C8.6,8.2,7.7,7.6,7.2,7.6C7,7.6,6.6,7.8,6.1,8.1L5.4,7.3
		C4,6.9,3.3,6.7,3.3,6.7V6.5l0.3-0.4C3,5.4,2.3,4.8,1.3,4.5C0.7,4.5,0.2,4.9,0,5.7h0.3c0,0.1-0.1,1-0.2,2.7v0.7
		c0.9,1.1,1.4,1.8,1.4,2.1v0.1c-0.5,0.8-0.9,1.9-1.4,3.4v3.5C0.4,18.7,0.6,19,0.9,19h6c2.9-1.3,4.4-2.2,4.5-2.6c0.9,0,1.6-1.7,2-5
		C13.4,10.8,12.2,10.1,9.9,9.4z M4.4,8.8L4.4,8.8c0,0-0.1-0.1-0.1-0.1h0V8.7c0,0,0,0,0,0.1h0.1V8.8C4.4,8.8,4.4,8.8,4.4,8.8L4.4,8.8
		z"/>
	<path fill="#FFFFFF" d="M144.3,1.3h-0.7l-0.7,0.5c0,0.9,0.4,1.4,1.2,1.4c0.8,0,1.3-0.3,1.4-0.8V1.5L144.3,1.3z M140.8,1.3h-0.6
		l-0.6,0.3c0,0.5,0.4,0.8,1.3,1c0.8-0.2,1.2-0.6,1.2-1L140.8,1.3z M145.1,6.6c0-0.1,0.1-0.2,0.2-0.5c0-0.7-0.8-1.2-2.6-1.7h-0.7
		l-0.6,0.3l0.2,1.1v0.3c-1.2,0.7-1.8,1.5-1.8,2.4c0.1,0,0.2,0,0.2-0.1v0.2c-0.6,0.1-1.1,2.2-1.6,6.4l0.2,0.4
		c-0.6,0.9-1.2,2.5-1.9,4.8l0.8,1.4c0,0.7,1.9,1,5.6,1h1.2c0.9,0,1.4-0.5,1.4-1.4V8.7C145.8,8,145.5,7.3,145.1,6.6z M140.7,15.3
		c-0.1,0.2-0.3,0.4-0.8,0.6c-0.3,0-0.5-0.1-0.5-0.4v-0.1c0.3-0.4,0.5-0.6,0.6-0.6h0.3c0.3,0.2,0.4,0.3,0.4,0.4V15.3z M143.3,11.3
		c-0.5,0.8-0.8,1.4-0.8,1.8c-0.3,0-0.8-0.1-1.5-0.4v-0.5l0.6-0.8V11c-0.5,0-0.8-0.1-0.8-0.4v-0.2c0-0.2,0.3-0.3,0.9-0.4h0.7
		c0.5,0.2,0.8,0.6,0.8,1.1V11.3z M134.8,53h-0.4l-1.2,0.3v0.4c0,0.8,0.5,1.6,1.6,2.2h1l0.4-1.6v-0.4C136.3,53.4,135.8,53.1,134.8,53
		z M137.4,30.2c0-0.9-0.5-1.5-1.4-1.8c-0.6,0.2-0.9,0.5-1.1,1.1c0.5,0.4,1,1.4,1.6,3.1c0,0.1,0,0.1-0.1,0.1H136
		c-0.2,0-0.4-0.7-0.8-2.2h-2.3l-0.9-0.2c-0.9,0.4-1.6,1.2-2,2.4v3.8l-0.4,0.7c0.2,0,0.4,0,0.4-0.1v0.4c0,0.5-0.1,1.1-0.2,1.8
		c0.1,0.3,0.2,0.4,0.2,0.5c-0.5,2-0.9,3.2-1.2,3.5V44l2.6,0.2h2.2c1,0,1.8-0.2,2.5-0.5l-0.3-0.5v-0.6c0-0.1,0.4-0.1,1.2-0.1
		c0.3-2.1,0.4-3.2,0.4-3.4v-4.3c0-0.6-0.1-1.3-0.2-2.1c0.1-0.1,0.2-0.7,0.2-1.7V30.2z M137.6,9.7c0-0.3,0.5-1.3,1.4-2.9
		c-0.2-0.9-0.3-1.3-0.4-1.3c0-1.8-2.2-3.2-6.7-4.2h-10.1c-0.4,0-0.9,0.2-1.4,0.5c0,0.5,0.1,0.8,0.2,1.1c-0.5,0-1.3,1.4-2.4,4.2
		c0.7,1.8,1.4,2.6,2.2,2.6c0.6,1.9,1.2,3,2,3.3c1.4,3.5,2.6,5.2,3.8,5.2h4.7c0.6,0,1.2-0.1,1.6-0.4l0.4,0.2v3.1c0,0.8,0.3,1.3,1,1.4
		c1.1,0,1.7-0.6,1.7-1.6V19c1.2-1.5,1.8-2.9,1.8-4.1c-0.3-0.6-1.1-0.9-2.5-1c-0.3,0.1-0.4,0.2-0.5,0.2c-0.6,0-0.9-0.1-0.9-0.1
		c-2.8-0.8-4.9-1.8-6.3-2.9v-0.1l0.1-0.2c2.6,1.3,5,2.4,7.2,3.2c0.2-0.2,0.6-0.2,1.3-0.2c1.5,0,2.2-1,2.2-3.1
		c-0.1-0.2-0.2-0.5-0.2-0.9V9.7z M125.7,3.7c0,0.1-0.1,0.2-0.2,0.2h-0.2c-0.1,0-0.1-0.1-0.2-0.2V3.6l0.3-0.4l0.3,0.2V3.7z
		 M134.4,4.9C134.4,4.9,134.4,4.9,134.4,4.9l-0.9-0.1l-1.2-0.3V4.4l0.4-0.2C133.6,4.5,134.2,4.7,134.4,4.9L134.4,4.9L134.4,4.9z
		 M136.1,9.3c-0.1,0-0.1,0-0.2,0c-0.2,0.4-0.2,0.7-0.3,0.7c-0.1,0-0.1-0.1-0.2-0.2V9.7c0.1-0.2,0.2-0.3,0.4-0.4
		c0-0.1,0.1-0.3,0.1-0.4c0-0.2-0.1-0.3-0.2-0.5c0-0.2,0.1-0.3,0.2-0.3h0.2l0.1,0.1c-0.1,0.3-0.2,0.5-0.2,0.7
		C136.1,9,136.1,9.1,136.1,9.3z M120.6,12.6c-0.6-2-1.4-3.2-2.3-3.6h-0.7c-1.9,0.6-3.4,1.9-4.5,3.7l0.2,3.4c1.7,1.4,3.4,2.1,5,2.1
		h4.7l0.8-0.5C122.8,15.1,121.7,13.5,120.6,12.6z M125.6,35.9c-0.6,0-2,0.3-4.2,1c-5,1-7.5,1.7-7.5,2c-2.6,0.4-3.9,1-3.9,2
		c0.3,0.9,0.5,2.2,0.6,4l-1.2,3.2c0.7,1.7,1.8,2.6,3.2,2.6c0-0.2,0.8-0.6,2.4-1.2l0.6,0.1l0.5,0.1c0,0,0.1-0.1,0.1-0.1
		c0.4-0.5,0.6-1.4,0.6-2.5v-3c0.7-0.2,1.1-0.3,1.2-0.3c0.2,0,1.2,0.1,3.1,0.4h3.4c3.3-0.1,5-1.6,5-4.4v-2
		C129.4,36.9,128.1,36.2,125.6,35.9z M118,40.2l-0.3,0.2c-0.2-0.1-0.3-0.2-0.3-0.3v-0.2h0.7V40.2z M108.4,65.7v0.1h0.1v-0.1H108.4z
		 M103.4,24.1v0.3h0.1v-0.3H103.4z M128.8,32.7l0.2-1.5l-0.5-0.2c-2.5-1.9-4.1-2.8-4.9-2.8h-6.9v-6.9c0-1.2-0.2-2-0.7-2.6
		c-2-0.8-3-1.4-3-1.6c-0.3,0-1,0.1-2.2,0.4l-1-0.2c-0.7,0.1-1,0.3-1,0.4c-1.6,0-3.6,0.6-6.1,1.9v1.7c-0.1,0.3-0.3,0.4-0.3,0.4
		c-0.3-1.1-1.1-2.2-2.5-3.3h-0.3c-0.4,0-0.8,0.1-1.2,0.4c-1.1,0-2.1,4-3,12.1c0,0.9,0.9,1.4,2.6,1.4c1.2-0.1,1.8-0.2,1.9-0.2
		l1.2,0.4c2.2-1,3.5-1.6,3.7-1.6v0.3l-1,1v0.4c2.1,4.1,4.2,6.1,6.2,6.1h0.2c2.2-0.8,4.7-1.4,7.3-1.8l6.9-1.4h1.4
		c0.3,0,0.8,0.2,1.7,0.6c0.8,0,1.3-0.4,1.5-1l-0.2-1.2V32.7z M107.3,28.9c0,0.7-0.5,1-1.5,1h-0.4v-0.2
		C105.5,29.5,106.1,29.2,107.3,28.9L107.3,28.9l0.1,0C107.4,28.8,107.4,28.9,107.3,28.9z M115.1,26.2v1c0,0-1.1,0.4-3.2,0.9h-1.5
		c1.7-0.6,2.6-1,2.6-1l1,0.2L115.1,26.2v-0.2h0.2L115.1,26.2z M141.7,61.6c0.7-0.1,1.4-0.2,2-0.2c1.4,0,2-0.7,2-2.2v-4.5
		c0-1.1-0.6-1.6-1.6-1.6h-5.5c-1.2,0-2,1.1-2.4,3.4v0.3l0.6,0.8v0.1l-0.1,0.2c-0.2,0-1.2-0.6-2.9-1.8h-0.5c-0.8,3-1.8,4.5-3.1,4.5
		H130c0-0.2,0.5-0.8,1.6-1.8V58l-1.3-0.3h-4.3l-1.2,0.3v1.2c0,0.1-0.1,0.2-0.2,0.2h-0.3c0-0.9-0.8-1.5-2.4-1.6h-5.1v-5.7
		c0-1-0.2-1.9-0.6-2.5c-0.1-0.1-0.1-0.2-0.2-0.2l-0.4,0.3l-2.8,1.6l-1.3-0.2c-0.4,0-0.6,0.2-0.6,0.6v0.7c1.3,1.3,2,2.8,2,4.8
		l-0.7-0.2c-0.9-2.3-1.6-3.4-2.2-3.4c-4,2.4-6.6,3.6-8.1,3.6h-0.5V57c0-0.2,0.7-0.5,2.2-0.9c4-1.7,6.1-2.9,6.1-3.8
		c0-1.1-0.5-2.5-1.4-4.1c-1.3-0.7-1.9-1.2-1.9-1.4c0-0.2,0.1-0.4,0.2-0.4h0.1c0.6,0.6,1.3,1,2,1.2c0.6,0,1.1-0.8,1.5-2.6v-0.7
		c-0.4-1.7-0.6-3.3-0.6-4.7v-0.5c-0.3,0-0.5-0.1-0.7-0.2c-1.6-1.3-2.7-2-3.3-2h-0.3c0-0.5-0.6-1.6-1.7-3.3l-1.5,0.2
		c-0.4,0-0.8-0.1-1.3-0.4c-0.6,0-1.3,0.1-2.2,0.2c-2,0-3,0.9-3,2.6v10.7c0,1.4,0.4,2.4,1.2,3.1c0.5,1.6,1.2,3.3,2.1,5V57
		c-0.5,2.4-0.8,3.6-0.9,3.6H97c0-0.9,0.3-2.2,0.8-4v-1.5c-0.7-0.7-1.3-1.9-1.8-3.7c-0.5,0-0.8,0.2-0.8,0.6v4.3
		c0,0.1-0.1,0.2-0.2,0.2h-6.5c-0.9,0-1.4,0.5-1.4,1.4v8.5c0,1.5,0.3,2.7,1,3.5c0,2.5,0.7,3.7,2,3.7h2.8c0.3,0,0.8,0.2,1.7,0.6
		c0.3,0,0.9-0.1,1.9-0.4c0.2,0,0.5,0.1,0.9,0.4c0.3,0,0.9-0.5,1.8-1.5c0.4-1.2,1.1-2.5,1.9-3.6v1.2c-1.2,1.4-1.8,2.3-1.8,2.7
		c0,0.9,0.6,1.4,1.8,1.4h11.7l1.4-0.3c0.6-1.8,1.2-2.8,1.8-2.9c0-0.9-0.1-2.2-0.2-3.7l1.8-2.8v-0.4c-1.3-1.4-2-2.2-2-2.5
		c0-0.3,0.2-0.7,0.4-1.2c-0.9-1.6-1.4-2.6-1.4-2.9h0.3c0.7,0.5,1.4,1.4,2.1,2.7c-0.1,0-0.2,0.4-0.3,1.3c0.3,0.5,0.6,0.8,0.8,0.8h0.5
		c0.8-0.7,1.2-1,1.3-1c0.1,0,0.2,0.1,0.2,0.2v0.5c-0.3,0.9-0.4,1.5-0.4,1.6v2.1c-1.2,1.3-1.8,2.3-2,3.1c0.1,0.7,0.2,1.1,0.2,1.2
		c0,1.4-0.5,2.5-1.4,3.2V74l1.6,0.3H140c1,0,1.8-0.4,2.2-1.4c0.2,0.9,0.6,1.4,1.5,1.4c1.4,0,2-0.5,2-1.4v-3.6c0-0.8-0.4-1.4-1.3-1.6
		c-0.7,0.3-1,0.6-1,0.9l0.1,0.2c-1.5-0.5-2.6-1-3.1-1.5c0-0.8-1.7-2.7-5.1-5.5v-0.3h0.9c0.6,0,1.2,0.2,1.8,0.5c2.8,3.3,4.6,5,5.5,5
		c1.5,0,2.2-0.7,2.2-2v-0.8c-0.1-1.5-0.7-2.2-1.7-2.2c-1,0.5-1.7,0.8-2.1,0.8h-0.2c-0.6,0-1.3-0.3-1.9-1v-0.3
		C140.4,61.4,141,61.5,141.7,61.6z M104.3,42.1h0.2c0.5,0,0.8,0.1,0.9,0.3c-0.1,0-0.1,0.2-0.1,0.4v0.5l0.4,0.5l-0.2,1.7h-0.5
		l-0.2-0.7c0-0.3,0.2-0.7,0.5-1.2l-0.8-1.3V42.1z M102.3,40.8c0-0.9,0.5-1.5,1.5-1.7v0.2c-0.3,0.3-0.7,0.9-1.2,1.9
		c-0.2-0.1-0.2-0.1-0.2-0.2V40.8z M102.3,43.4L102.3,43.4l0.4,0.3c-0.1,0.3-0.2,0.4-0.3,0.4h-0.1V43.4z M99.5,67h-0.2
		c-0.1,0-0.1-0.1-0.2-0.2v-0.1h0.3V67z M143.6,68.7l0.5,0.8c0,0.5-0.1,0.8-0.4,0.9h-0.1V68.7z M138.9,69.4l-0.1,0.4h-0.5
		c-1.4-1.3-2.5-2-3.5-2c-0.6-1.1-1.1-1.9-1.5-2.2v-1h0.3c0.8,0.6,1.2,1.1,1.2,1.4L138.9,69.4z M88.9,16.3v-2.2
		c-0.1-2.2-0.5-3.4-1.2-3.4c-0.5,0-0.7,0.5-0.8,1.4v6c0.3,0.5,0.6,0.8,0.8,0.8h4v-0.6C89.8,17.3,88.9,16.6,88.9,16.3z M117.5,1.3
		H88.2c-0.9,0-1.4,0.4-1.4,1.3c0,2.3,0.5,3.4,1.4,3.4L88,6.2v0.6c1.8,2,2.8,4.2,2.8,6.6c-0.1,0.9-0.2,1.5-0.2,1.8h0.2
		c0,0.7,1.8,1.6,5.5,2.8c0.3,0,1.5-0.4,3.8-1.3c1.5,1.2,2.4,1.7,2.6,1.7c1.1-0.1,2.2-0.6,3.3-1.4c4.3-0.5,6.4-1,6.4-1.6v-0.7
		l-0.4-0.6v-0.8c0.6-1.9,1.2-3.1,2-3.8c1.6-0.5,2.3-1.3,2.3-2.6c1.3-2.7,2-4.3,2-4.9C118,1.6,117.8,1.3,117.5,1.3z M109.3,7L109.3,7
		l-0.1-0.1L109.3,7L109.3,7h0.1H109.3z M110.9,8.2h-0.1c-0.1,0-0.1-0.1-0.2-0.2V7.8c0,0-0.1-0.1-0.1-0.1h0.1v0.1
		c0.2,0.1,0.3,0.2,0.3,0.3V8.2z"/>
	<path fill="#FFFFFF" d="M259.9,1.2h-0.7l-0.6,0.3c0,0.5,0.5,0.8,1.5,1c0-0.2,0.1-0.3,0.4-0.3V1.9C260.5,1.5,260.3,1.3,259.9,1.2z
		 M260.9,8.2l-0.3-1.6h-1c0,0.3-0.3,0.9-0.7,1.9c0.2,0,0.3,0,0.3-0.1v0.2c0,0.1-0.3,0.4-1,0.9c0,2.6-0.5,5.7-1.6,9.1l0.6,0.3h2.2
		c0.9,0,1.4-0.5,1.4-1.4v-3.2c0-0.6-0.3-1.1-0.8-1.7v-0.4l0.4-0.6v-0.4l-0.6-0.8c0.7-0.7,1-1.3,1-1.9V8.2z M259.9,15.3
		c-0.1,0.2-0.3,0.4-0.8,0.6c-0.1,0-0.3-0.1-0.5-0.3c0-0.4,0.2-0.6,0.6-0.8h0.3c0.3,0.1,0.4,0.2,0.4,0.3V15.3z M258.2,6.7
		c0-2.8-2.4-4.6-7.1-5.4h-10.1c-0.4,0-0.9,0.2-1.4,0.5c0,0.5,0.1,0.8,0.2,1.1c-0.5,0-1.3,1.4-2.4,4.2c0.8,1.8,1.5,2.6,2.2,2.6
		c0.6,1.9,1.2,3,2,3.3c1,2.3,1.8,3.8,2.3,4.4v3.6c-0.2,0.3-0.6,1.1-1.2,2.4c0,0.7,0.5,1.8,1.4,3.2c1.3,1.3,3.1,2.1,5.3,2.5
		c0.8-0.3,1.2-0.5,1.2-0.6c1.5,0,2.2-0.7,2.2-2.2v-7.1c0-0.1,0.2-0.2,0.6-0.2c1.7,0,2.7-1.4,3-4.1c-0.3-0.5-1.1-0.9-2.5-1
		c-0.2,0.1-0.4,0.2-0.5,0.2c0,0,0,0-0.1,0c-0.8,0-2.5-0.5-5-1.5l-2.2-1.5l0.1-0.2c2.6,1.3,5,2.4,7.2,3.2c0.2-0.2,0.6-0.3,1.3-0.3
		c1.5,0,2.2-0.9,2.2-2.8l-0.2-1.4C256.8,9.3,257.2,8.3,258.2,6.7z M244.9,3.7c0,0.1-0.1,0.2-0.2,0.2h-0.2c-0.1,0-0.1-0.1-0.2-0.2
		V3.6l0.3-0.4l0.3,0.2V3.7z M253.5,4.8C253.5,4.8,253.5,4.8,253.5,4.8l-0.9,0l-1.2-0.4V4.3c0.1,0,0.2-0.1,0.4-0.2
		C252.9,4.5,253.4,4.7,253.5,4.8L253.5,4.8L253.5,4.8z M255.2,9.2c-0.1,0-0.2,0-0.2,0.1c0,0.1,0,0.2,0.1,0.3
		c-0.1,0.2-0.2,0.3-0.3,0.3c-0.1,0-0.1-0.1-0.2-0.1V9.7c0.1-0.2,0.2-0.3,0.4-0.4c-0.1-0.2-0.1-0.4-0.1-0.6l0.2-0.1
		c0-0.1-0.1-0.1-0.1-0.2c0-0.2,0.1-0.3,0.2-0.3h0.2l0.2,0.3l-0.4,0.2C255.2,8.8,255.2,9,255.2,9.2z M239.9,12.8
		c-0.7-1.9-1.5-3.2-2.5-3.8h-0.7c-1.9,0.6-3.4,1.9-4.5,3.7c0,2.7,0.4,4.1,1.2,4.1c4.5,3.1,7.4,4.7,8.5,4.7c1-1.4,1.5-2.4,1.5-2.9
		C242,15.3,240.8,13.4,239.9,12.8z M228.5,6.9L228.5,6.9L228.5,6.9L228.5,6.9z M228.4,6.9l0.1,0.1V6.9H228.4z M260.7,61.4l0.3-1.6
		V58c0-0.9-0.5-1.4-1.4-1.4h-2.2c-0.8,0-1.3,0.4-1.5,1.1c-1.5-0.7-2.5-1.1-2.9-1.1c-2-3-3-4.7-3-4.9v-0.2c0-0.1,0.1-0.1,0.2-0.2h0.1
		c1.1,1.6,1.8,2.4,2.1,2.4h0.4l0.2-1.2V32.1c0-0.9-0.5-1.5-1.4-1.8c-0.9,0.2-1.7,1-2.2,2.4V38l-0.3,1.6c0.2,0,0.3,0.1,0.3,0.1
		c0,0.2-0.3,1.1-0.7,2.7c-1.2,1.5-1.8,2.7-1.8,3.5l0.3,1.1c1.6,0.9,2.5,1.9,2.7,2.9c-1-1.3-2.1-1.9-3.1-1.9h-1.7v-0.2
		c0.9-0.5,1.4-1.6,1.4-3.4c1.6-2,2.4-3.6,2.4-4.7v-2c0-1-1.3-1.7-3.8-2c-0.4,0-3.7,0.8-9.9,2.4c-1.5,0-2.2,0.9-2.2,2.8v8.1l0.3,0.6
		c0.3,0,0.6-0.1,0.8-0.2l0.5,0.1c-0.9,0.4-1.5,1.3-1.6,2.9V57c0,0.1-0.2,0.2-0.6,0.4c-0.2,0-1.2-0.1-2.9-0.4c-1.2,0.2-1.8,0.5-1.8,1
		v6.2l0.4,1.3c-0.3,0.9-0.4,1.5-0.4,1.6v5.7c0,1,0.5,1.4,1.4,1.4h3.2l1.3-0.2c0.4-1.5,1-2.6,1.8-3.3v-0.3c0-0.8-0.1-1.8-0.2-3.1
		l1.8-2.8v-0.4c-1.3-1.4-2-2.2-2-2.5c0-0.3,0.2-0.7,0.4-1.2c-0.9-1.6-1.4-2.6-1.4-2.9h0.3c0.7,0.5,1.4,1.5,2.2,2.9l-0.4,0.5v0.5
		c0.3,0.5,0.6,0.8,0.8,0.8h0.5c0.8-0.7,1.2-1,1.3-1c0.1,0,0.2,0.1,0.2,0.2v0.3c-0.3,1.3-0.4,2.1-0.4,2.2v1.7c-1.2,1.5-1.9,2.5-2,3.1
		c0.1,0.7,0.2,1.1,0.2,1.2c0,1.4-0.5,2.5-1.4,3.2V74l1.6,0.2h22.7c1.1,0,1.6-0.5,1.6-1.6v-2.9c0-1.2-0.5-2.1-1.4-2.5
		c-0.2-1.1-0.6-1.7-1.1-1.7c-1.6-1.9-2.9-3.2-4-3.9v-0.2h0.9c0.4,0,0.7,0.1,0.9,0.2c0.6,0,1.9,1.2,3.9,3.6c0.5,0,0.7-0.2,0.7-0.6
		v-0.2c0-1-0.7-1.9-2-2.7v-0.2H260.7z M237.4,44l0.1-0.2v0.3L237.4,44L237.4,44z M237.1,40.1l-0.3,0.2c-0.2-0.1-0.4-0.2-0.4-0.3
		v-0.2h0.7V40.1z M237.2,50.9v-0.2h0.6c2-1.6,3.3-2.4,3.7-2.4h0.2v0.1c-0.7,0.8-1,1.3-1,1.5c0.2,0.2,0.2,0.5,0.2,0.7h-0.2l-0.2-0.8
		h-0.7c-0.9,0.8-1.7,1.2-2.5,1.2C237.3,51,237.3,51,237.2,50.9z M243.9,59.1c0,0.1-0.1,0.2-0.2,0.2h-0.1l-1.9-1.9
		c-0.6-1.6-1.9-3.3-3.9-5.3l0.2-0.1h0.1c0.8,0.9,1.6,1.7,2.5,2.3c0.9,1.7,2,3.2,3.3,4.3V59.1z M249.3,60.4l2.5-3.6
		C251.7,58.9,250.9,60.1,249.3,60.4z M258.1,69.5L258.1,69.5l-0.1,0.2h-0.5c-1.4-1.3-2.5-2-3.5-2c-0.5-1-1-1.8-1.5-2.2v-1h0.3
		c0.8,0.6,1.2,1.1,1.2,1.5C255.2,66.9,256.6,68,258.1,69.5z M222.5,24v0.3h0.1V24H222.5z M236.6,1.2h-11.2c-0.7,0-2.5,5.2-5.4,15.5
		c0.4,1.1,1,1.6,1.8,1.6c1.1,0,2.2-0.5,3.5-1.6c4.3-0.1,6.5-0.8,6.5-2c-0.3-0.1-0.5-0.4-0.6-1.2v-0.7l1.7-3.2
		c1.8-0.6,2.6-1.5,2.6-2.5c1.3-2.8,2-4.5,2-5C237.2,1.5,236.9,1.2,236.6,1.2z M230,8.2h-0.1c-0.1,0-0.1-0.1-0.2-0.2V7.7
		c0,0-0.1-0.1-0.1-0.1h0.1v0.1c0.2,0.1,0.3,0.2,0.3,0.3V8.2z M247.9,33.3l0.2-2.1c-4.2-2.2-6.3-4.9-6.3-8.1
		c-4.2-2.7-6.4-4.2-6.8-4.6c-1.8-0.6-2.8-1-2.9-1.4c-0.3,0-0.9,0.1-1.8,0.4c-0.3,0-0.8-0.1-1.3-0.2c-1,0.4-1.6,0.6-1.8,0.6
		c-1.2,0-3,0.6-5.4,1.7v1.7c-0.1,0.3-0.3,0.4-0.4,0.4h0c-0.7-1.7-1.3-2.6-1.7-2.6H219c-1.9,5.9-3.1,9.9-3.6,12.2
		c0,0.4,0.5,0.7,1.4,0.9c0.3,0,1-0.1,2.2-0.2c0.2,0,0.7,0.2,1.4,0.7c1.3-1,2.4-1.6,3.5-1.8V31l-1,1v0.4c2.2,4.1,4.2,6.1,6.2,6.1h0.2
		c0.7,0,1.8-2.4,3.3-7.1v4.5c0,0.8,0.3,1.3,1,1.4l9.9-2h1.4c0.3,0,0.9,0.2,1.8,0.6c0.7-0.1,1.2-0.2,1.5-0.2
		C248,34.3,247.9,33.6,247.9,33.3z M226.5,28.8c0,0.7-0.5,1-1.5,1h-0.4v-0.1C224.6,29.5,225.2,29.2,226.5,28.8L226.5,28.8l0.1,0
		C226.6,28.8,226.5,28.8,226.5,28.8z M234.2,26.2v1.2c-0.7,0-1.7,0.3-3.2,0.8h-1.5c1.7-0.6,2.6-1,2.6-1l1,0.2L234.2,26.2V26h0.1
		L234.2,26.2z M196.9,56.2v0.7h0.1v-0.7H196.9z M196.4,70.9h-0.6c0.1,2,0.5,3,1,3h1l0.3-1.3L196.4,70.9z M190.8,30.1v0.1h0.1v-0.1
		H190.8z M188.8,60.7h-0.6c-0.4,0-0.6,0.2-0.6,0.6v0.5c0.3,0.5,0.5,0.8,0.8,0.8c0.4,0,0.6-0.2,0.6-0.6L188.8,60.7z M188.2,32.8
		l-0.6,0.3c0,0.5,0.2,0.8,0.6,0.8h0.6v-1.1H188.2z M225.3,46.4h0.1l1,0.8h1.1c0.7-2.3,1-3.5,1-3.6c0-0.5-0.1-1.9-0.2-4.4
		c-0.3,0-0.5-0.1-0.7-0.1c-1.6-1.4-2.7-2-3.3-2H224c0-0.5-0.6-1.6-1.7-3.3l-1.5,0.2c-0.4,0-0.8-0.1-1.3-0.4
		c-1.6,0.2-2.7,0.2-3.4,0.2h-0.2c-1.2,0-2.5,3.2-4,9.6l0.6,1.2v0.9l-0.1,0.2l-1-0.2c-1.7,6.6-2.7,10.3-3,11.1
		c-1.9-8.2-3.8-15.1-5.7-20.6c-0.7,0-1.6,0.5-2.5,1.4h-0.6v-0.1c1.2-1.3,1.8-2.1,1.8-2.3v-0.7l-1.2-1.3c-0.9,0-2.1,0.1-3.5,0.2
		c-1.3-0.3-2.1-0.4-2.6-0.4H194c-1.6,0-3.2,1.2-4.6,3.6v0.6c0.9,0.8,1.4,1.3,1.4,1.3c0,0.1,0,0.2-0.1,0.2h-0.2
		c-0.1,0-0.6-0.1-1.5-0.4c-0.8,0-1.5,0.4-1.9,1.2v0.3c4.9,17.3,7.3,26.3,7.3,26.8c0.4,2.8,1.3,4.2,2.6,4.2c1.3,0,2.1,1,2.4,3
		c0.5,0,1.1-0.1,1.6-0.2c1.2,0.1,1.9,0.2,2.2,0.2c2.4-0.4,3.6-0.8,3.6-1.4v-0.4c0-0.2-0.4-1.4-1.2-3.8c0-0.3-0.9-2.3-2.7-5.9
		c0.1-0.2,0.2-0.4,0.3-0.4h0.5c1.3,2.4,1.9,3.6,2.1,3.6c0.5,2.7,1,4.3,1.5,4.8c0,2.5,0.7,3.7,2,3.7h2.8c0.3,0,0.9,0.2,1.7,0.6
		c0.3,0,0.9-0.1,1.9-0.4c0.2,0,0.5,0.1,0.9,0.4c0.3,0,0.9-0.5,1.8-1.5c0.9-2.1,1.5-3.3,1.9-3.7c0.1,0,0.1,0.1,0.1,0.1v1.1
		c-1.2,1.4-1.8,2.3-1.8,2.7c0,0.9,0.5,1.4,1.5,1.5c0-0.2,0.1-0.3,0.3-0.3c0.8-2.3,2.4-8.1,4.6-17.4V56c-2.3,0.7-3.6,1.1-4,1.1h-0.5
		V57c0-0.2,1-0.7,3.2-1.3c1.5,0,2.8-2.4,3.8-7.3c-1.4-0.9-2-1.5-2-1.7C225.2,46.5,225.2,46.4,225.3,46.4z M196.1,39.8
		c-0.2,0-0.4-0.1-0.4-0.2v-0.2c0-0.1,0.1-0.1,0.2-0.2h0.7C196.7,39.5,196.5,39.7,196.1,39.8z M217.6,56.9c-0.5,2.4-0.8,3.6-0.9,3.6
		h-0.5c0-0.7,0.3-2.1,0.8-4v-1.5c-0.9-1-1.4-2-1.4-3c-1.9-2.4-2.9-4.1-3-4.9l0.4-0.2c0,0,0.9,1.2,2.6,3.6c0,0.5,0.6,2,2,4.7V56.9z
		 M218.6,67h-0.1c-0.1,0-0.1-0.1-0.2-0.1v-0.2h0.3V67z M221.4,44.1L221.4,44.1L221.4,44.1C221.4,44.1,221.4,44.1,221.4,44.1v-0.7
		h0.1l0.4,0.3C221.8,43.9,221.7,44,221.4,44.1z M222.9,39.3c-0.6,0.6-1,1.2-1,1.8h-0.4c-0.1,0-0.1-0.1-0.2-0.2v-0.2
		c0-0.9,0.5-1.5,1.5-1.7V39.3z M224.6,45.5H224l-0.2-0.7c0-0.3,0.2-0.7,0.5-1.2l-0.8-1.3V42c0,0,0.1-0.1,0.3-0.1
		c0.4,0.2,0.7,0.4,0.7,0.4c-0.1,0-0.2,0.2-0.2,0.4v0.5c0.3,0.5,0.5,0.8,0.6,0.8C224.9,44,224.8,44.5,224.6,45.5z M195.7,12.5H195
		c-1.5,1.6-2.4,2.6-2.7,3c-1.3,0.9-2.8,3-4.4,6.3c0.3,0.5,0.5,0.9,0.5,1.2v0.3l-1.6,3c0.1,0.8,0.2,1.4,0.2,1.8v0.3
		c-0.4,0.6-0.6,1.1-0.6,1.5c0.9,1.5,1.5,2.2,1.8,2.2c0.5,0,1.1-0.3,1.9-0.8c0.2,0,0.4,0.3,0.8,0.8h0.4c0.5-0.4,0.9-0.6,1.3-0.6h1.6
		c0.2,0,1.2,0.1,3.1,0.4h4c0-0.3,0.1-0.5,0.2-0.8L195.7,12.5z M178.2,49.1V49l1-1.4c0.1-2.9,1.3-6.1,3.7-9.5c0-1.3-1.3-2.4-4-3.3
		c-0.3,0.2-0.5,0.2-0.8,0.2h-0.9l-5.3-1.4c-0.6,0-1.5,0.3-2.6,0.8c0-0.6-1.5-1.2-4.5-1.8c-0.5,0-0.8,0.5-0.9,1.4v5.1l0.3,1.3h0.7
		c0.5-0.4,0.8-0.6,1-0.6v0.3c-1.3,1.1-2,1.8-2,2.1l0.2,0.4c-0.1,1.1-0.2,2-0.2,2.7v9.1c0,0.3,0.1,0.7,0.3,1c1,0,1.8-0.2,2.2-0.5
		c0-0.5-0.2-1.3-0.6-2.5c0,0,0-0.4,0.1-1.1c0.8,2.2,1.7,3.4,2.8,3.4h1.4c1.3-0.4,2-0.6,2.3-0.6h2.5c1.3,0.4,2,0.6,2.4,0.6h0.5
		c1.3-0.6,2-1.4,2-2.2v-0.6C179.8,50.7,179.3,49.8,178.2,49.1z M165.9,51.2c0-0.3,0.1-0.7,0.1-1.1l0.1,0.2L165.9,51.2z M166.7,38.5
		L166.7,38.5L166.7,38.5c-0.1,0.1-0.1,0.1-0.1,0.1v-0.1L166.7,38.5C166.6,38.5,166.6,38.5,166.7,38.5L166.7,38.5l0.1-0.1
		C166.7,38.5,166.7,38.5,166.7,38.5z M168.4,37.1c-0.1-0.1-0.2-0.1-0.3-0.1v-0.1l0.2-0.7h0.2c0.1,0,0.2,0.1,0.2,0.1
		C168.7,36.5,168.6,36.8,168.4,37.1z M173,45.9c0,0.3-0.4,0.5-1.3,0.7c0-0.5,0.3-0.9,0.8-1h0.4c0.1,0,0.1,0.1,0.1,0.2V45.9z
		 M177.5,40.8c0,0.1-0.1,0.2-0.2,0.2h-0.1l-0.4-0.3c0-0.3,0.2-0.5,0.6-0.6c0.1,0,0.1,0.1,0.1,0.2V40.8z M160.1,69.7
		c0,0,0.1-0.4,0.2-1.1V68c-1.8-0.4-3.1-1-3.9-1.8h-0.5l-0.2,1.6v4.9c0,1,0.6,1.4,1.8,1.4h3.6l1.6-0.2v-0.9
		C161.3,71.5,160.5,70.4,160.1,69.7z M157,56.5c-0.8,0-1.3,0.3-1.4,1l0.2,1.2h1c0.9,0,1.4-0.4,1.7-1.3C158,56.9,157.5,56.5,157,56.5
		z M187.4,59.6h0.2l1.1,0.2l0.3-0.6V58c0-0.5-0.5-0.8-1.6-1l-3.1,0.2c-0.1,0-0.1-0.1-0.2-0.2V41.1h-0.9l-1.1,1.1
		c-0.6,1.6-1,2.4-1.2,2.5c-0.4,0.6-0.9,2.1-1.5,4.5c0.5,1.8,0.8,3,0.8,3.4h0.5c0.8-0.5,1.2-0.9,1.2-1.4h0.1v0.9
		c0,0.4-0.2,0.8-0.6,1.3v0.5c0.4,1.7,0.6,2.7,0.6,3.3c2.5,1.1,3.7,1.8,3.7,2v0.2c0,0.1-0.1,0.2-0.1,0.2h-0.5c-0.8-0.6-1.4-1-1.8-1
		c-0.3,0.5-0.6,0.7-0.6,0.7c-1.1-1-1.6-2.3-1.6-3.7c-0.8,0-2,0.3-3.7,0.8h-0.1c-1.1-0.7-1.9-1-2.4-1h-0.3c-0.7,0.3-1,0.8-1,1.6v1.6
		c0,0.1,0,0.2-0.1,0.2l-0.4-0.3c0-0.1,0.1-0.8,0.4-2c0-0.8-0.5-1.3-1.6-1.5c-1,0.2-1.4,0.4-1.4,0.6c-2,0.1-3.7,0.5-5,1.2
		c-3.7,1.1-5.5,2-5.5,2.9c0.2,0,0.2,0,0.2-0.1v0.7H160c-0.4,0-0.8-0.2-1.3-0.6H158c-1.6,0.3-2.4,1.2-2.4,2.4c0,1.6,0.7,2.4,2.1,2.4
		c0.8,1.1,2.4,1.6,4.6,1.6h0.6l1-2v0.2c0,0.8,1.1,1.3,3.2,1.6c1.2-0.3,1.9-0.4,2.2-0.4c0.1,0,0.4,0.1,0.8,0.4c0-0.3,0.4-0.5,1.2-0.6
		c3.7-1.3,6-2,7.1-2c0.9,0,2.1-0.7,3.5-2.2h1v0.2c0,0.8-0.7,1.8-2,3.1c-1.8,0-3.2,0.3-4.1,1c-2.7,1.3-6,1.9-10,1.9h-1
		c-1.8,0-2.9,0.7-3.3,2.1c0.2,0,0.4,0.3,0.5,0.8c1.6,2.5,3.5,3.7,5.8,3.7h19c0.9,0,1.4-0.5,1.4-1.4v-6.6c-0.8-2.4-1.5-3.7-2.2-4
		C187,60.4,187.2,59.6,187.4,59.6z M163.9,62.5h-0.2c-0.1,0-0.1-0.1-0.1-0.2v-0.2c0,0,0.1,0,0.2-0.1l0.1,0.1V62.5z M169.5,71.2h-0.1
		v-0.1h0.1V71.2z M172.4,2.5c0,0,0.1-0.2,0.1-0.5V1.9c0-0.4-0.2-0.6-0.6-0.7H157c-1,0-1.4,0.6-1.4,1.8v4.7c0,1.5,1,2.2,3.1,2.2
		c2.1-2.1,4.4-3.1,7-3.1c0.5,0,1,0.1,1.8,0.2c0.2-0.1,0.5-0.2,0.7-0.2c0.2,0,0.6,0.3,1.3,0.8h0.8c1.7-1.8,2.6-3.2,2.8-4.2
		C173,3.4,172.7,3.1,172.4,2.5z M158,3.6h-0.3V3.3h0.2c0.1,0,0.1,0.1,0.1,0.1V3.6z M195.2,12c0-1.2-0.6-3.3-1.8-6.2
		c-0.5-3-1.3-4.5-2.4-4.5h-4.1c-0.5,0-1.6,0.4-3.3,1.2c-3.2-0.8-4.9-1.2-5.1-1.2h-0.8c-2.4,0.1-3.6,1.2-3.6,3.5c0.1,0,0.2,0,0.2-0.1
		v0.4c0,0.4-0.7,1.4-2.2,3.1c0,0.5,0.7,0.7,2,0.7c3.9,1.6,6.1,2.4,6.4,2.4c0.4,1.1,1,1.9,1.8,2.5c1.9,0.9,2.9,1.5,3,1.6l-0.1,0.2
		c-2.3,0-3.9-0.7-4.9-2.2c0-1.1-2.8-2.3-8.5-3.7H169c-1.5-1.3-2.4-2-2.7-2c-0.5,0.2-0.8,0.4-0.8,0.4c-3.2,0.2-4.7,1.1-4.7,2.8
		c0,0.7,0.2,1.4,0.6,1.9v0.7c0,0.1-0.1,0.1-0.2,0.1H161c-0.7-1.8-2-2.8-4.2-2.8c-0.8,0.2-1.2,0.8-1.2,1.6v5.1c0,0.9,0.5,1.4,1.4,1.4
		h6.7c0.1,0,0.2,0.1,0.2,0.2v10.3c0,0.6,0.2,1.3,0.5,1.9l1.3-0.2c2.2,1.3,3.4,2,3.6,2c1.4-0.1,2.7-0.2,3.7-0.2c0.3,0,1.9,0.7,4.9,2
		h2.4c0.2,0,1.2,0.5,3.1,1.4c0.5,0,0.7-0.2,0.7-0.6v-4.3l-0.2-1.3c0.8-0.6,1.2-1,1.2-1.3v-1l-4.1-1v-0.2h0.7c0.5,0,1,0.1,1.8,0.2
		c0.7,0,1.6-0.8,2.8-2.5c0-2.9,0.6-5,2-6.3v-0.3l-0.2-0.9c0.2-0.2,1.1-0.4,2.6-0.8C193.3,13.3,194.8,12,195.2,12z M161.3,16.5H161
		c-0.2,0-0.3-0.3-0.3-0.9v-0.8c0-0.1,0.1-0.1,0.1-0.2c0.4,0.2,0.6,0.5,0.6,1.1V16.5z M166.3,29.1h-0.2c-0.1,0-0.1,0-0.2-0.1
		c0-0.1,0.1-0.1,0.2-0.2c0.1,0,0.1,0.1,0.1,0.2V29.1z M187,16.1h-0.6c-0.1,0-0.1-0.1-0.1-0.2c0-0.1,0.1-0.1,0.2-0.2h0.4
		c0.1,0,0.2,0.1,0.2,0.2V16.1z"/>
	<path fill="#FFFFFF" d="M328.3,1.3h-0.7l-0.7,0.5c0,0.9,0.4,1.4,1.2,1.4c0.8,0,1.3-0.3,1.4-0.8V1.5L328.3,1.3z M324.8,1.3h-0.7
		l-0.6,0.3c0,0.5,0.4,0.8,1.3,1c0.8-0.2,1.2-0.6,1.2-1L324.8,1.3z M329.1,6.6c0-0.1,0.1-0.2,0.2-0.5c0-0.7-0.8-1.2-2.6-1.7h-0.7
		l-0.6,0.3l0.2,1.1v0.3c-1.2,0.7-1.8,1.5-1.8,2.4c0.1,0,0.2,0,0.2-0.1v0.2c-0.6,0.1-1.1,2.2-1.6,6.4l0.2,0.4
		c-0.6,0.9-1.2,2.5-1.9,4.8l0.8,1.4c0,0.7,1.9,1,5.6,1h1.2c0.9,0,1.4-0.5,1.4-1.4V8.7C329.7,8,329.5,7.3,329.1,6.6z M324.7,15.3
		c-0.1,0.2-0.3,0.4-0.8,0.6c-0.3,0-0.5-0.1-0.5-0.4v-0.1c0.3-0.4,0.5-0.6,0.6-0.6h0.3c0.3,0.2,0.4,0.3,0.4,0.4V15.3z M327.3,11.3
		c-0.5,0.8-0.8,1.4-0.8,1.8c-0.3,0-0.8-0.1-1.5-0.4v-0.5l0.6-0.8V11c-0.5,0-0.8-0.1-0.8-0.4v-0.2c0-0.2,0.3-0.3,0.9-0.4h0.7
		c0.5,0.2,0.8,0.6,0.8,1.1V11.3z M318.8,53h-0.4l-0.4,0.1h1.2C319.2,53.1,319,53.1,318.8,53z M320,28.4C320,28.4,320,28.4,320,28.4
		L320,28.4C320.1,28.4,320,28.4,320,28.4z M321.6,9.7c0-0.3,0.5-1.3,1.4-2.9c-0.2-0.9-0.3-1.3-0.4-1.3c0-1.8-2.2-3.2-6.7-4.2h-10.1
		c-0.4,0-0.9,0.2-1.4,0.5c0,0.5,0.1,0.8,0.2,1.1c-0.5,0-1.3,1.4-2.4,4.2c0.7,1.8,1.4,2.6,2.2,2.6c0.6,1.9,1.2,3,2,3.3
		c1.4,3.5,2.6,5.2,3.8,5.2h4.7c0.6,0,1.2-0.1,1.6-0.4l0.4,0.2v3.1c0,0.8,0.3,1.3,1,1.4c1.1,0,1.7-0.6,1.7-1.6V19
		c1.2-1.5,1.8-2.9,1.8-4.1c-0.3-0.6-1.1-0.9-2.5-1c-0.3,0.1-0.4,0.2-0.5,0.2c-0.6,0-0.9-0.1-0.9-0.1c-2.8-0.8-4.9-1.8-6.3-2.9v-0.1
		l0.1-0.2c2.6,1.3,5,2.4,7.2,3.2c0.2-0.2,0.6-0.2,1.3-0.2c1.5,0,2.2-1,2.2-3.1c-0.1-0.2-0.2-0.5-0.2-0.9V9.7z M309.7,3.7
		c0,0.1-0.1,0.2-0.2,0.2h-0.2c-0.1,0-0.1-0.1-0.2-0.2V3.6l0.3-0.4l0.3,0.2V3.7z M318.4,4.9C318.4,4.9,318.4,4.9,318.4,4.9l-0.9-0.1
		l-1.2-0.3V4.4l0.4-0.2C317.6,4.5,318.2,4.7,318.4,4.9L318.4,4.9L318.4,4.9z M320.1,9.3c-0.1,0-0.1,0-0.2,0
		c-0.2,0.4-0.2,0.7-0.3,0.7c-0.1,0-0.1-0.1-0.2-0.2V9.7c0.1-0.2,0.2-0.3,0.4-0.4c0-0.1,0.1-0.3,0.1-0.4c0-0.2-0.1-0.3-0.2-0.5
		c0-0.2,0.1-0.3,0.2-0.3h0.2l0.1,0.1c-0.1,0.3-0.2,0.5-0.2,0.7C320.1,9,320.1,9.1,320.1,9.3z M304.6,12.6c-0.6-2-1.4-3.2-2.3-3.6
		h-0.7c-1.9,0.6-3.4,1.9-4.5,3.7l0.2,3.4c1.7,1.4,3.4,2.1,5,2.1h4.7l0.8-0.5C306.7,15.1,305.7,13.5,304.6,12.6z M287.4,24.1v0.3h0.1
		v-0.3H287.4z M287.4,24.1v0.3h0.1v-0.3H287.4z M328.1,53h-5.5c-0.2,0-0.3,0-0.5,0.1h6.6C328.5,53.1,328.3,53,328.1,53z M326.1,72.7
		c0,0.1,0,0.2,0.1,0.2c0-0.1,0.1-0.1,0.1-0.2H326.1z M272.9,16.3v-2.2c-0.1-2.2-0.5-3.4-1.2-3.4c-0.5,0-0.7,0.5-0.8,1.4v6
		c0.3,0.5,0.5,0.8,0.8,0.8h4v-0.6C273.8,17.3,272.9,16.6,272.9,16.3z M301.4,1.3h-29.2c-0.9,0-1.4,0.4-1.4,1.3
		c0,2.3,0.5,3.4,1.4,3.4L272,6.2v0.6c1.8,2,2.8,4.2,2.8,6.6c-0.1,0.9-0.2,1.5-0.2,1.8h0.2c0,0.7,1.8,1.6,5.5,2.8
		c0.3,0,1.5-0.4,3.8-1.3c1.5,1.2,2.4,1.7,2.6,1.7c1.1-0.1,2.2-0.6,3.2-1.4c4.3-0.5,6.5-1,6.5-1.6v-0.7l-0.4-0.6v-0.8
		c0.6-1.9,1.2-3.1,2-3.8c1.6-0.5,2.3-1.3,2.3-2.6c1.3-2.7,2-4.3,2-4.9C302,1.6,301.8,1.3,301.4,1.3z M293.3,7L293.3,7l-0.1-0.1
		L293.3,7L293.3,7L293.3,7L293.3,7z M294.9,8.2h-0.1c-0.1,0-0.1-0.1-0.2-0.2V7.8c0,0-0.1-0.1-0.1-0.1h0.1v0.1
		c0.2,0.1,0.3,0.2,0.3,0.3V8.2z"/>
	<path fill="#FFFFFF" d="M328.7,53.1h-12.5v4.1h-16.1v-7.5c0,0,0-0.1,0-0.1c0,0,0,0,0-0.1v-5.5h4c0.3,0.1,0.6,0.1,0.9,0.1h3.4
		c0.5,0,0.9-0.1,1.3-0.1h4.2l1.6,0.1h2.2c0.5,0,0.9-0.1,1.4-0.1h1.6v-1.6h0.4c0.3-2.1,0.4-3.2,0.4-3.4v-4.3c0-0.6-0.1-1.3-0.2-2.1
		c0.2-0.1,0.2-0.7,0.2-1.7v-0.8c0-0.7-0.3-1.2-0.8-1.5v-0.3h-12.2c-0.4-0.2-0.6-0.2-0.9-0.2h-6.9v-6.9c0-1.2-0.2-2-0.7-2.6
		c-2-0.8-3-1.4-3-1.6c-0.3,0-1,0.1-2.2,0.4l-1-0.2c-0.7,0.1-1,0.3-1,0.4c-1.6,0-3.6,0.6-6.1,1.9v1.7c-0.1,0.3-0.3,0.4-0.3,0.4
		c-0.3-1.1-1.1-2.2-2.5-3.3h-0.3c-0.4,0-0.8,0.1-1.2,0.4c-1.1,0-2.1,4-3,12.1c0,0.9,0.9,1.4,2.6,1.4c1.2-0.1,1.8-0.2,1.9-0.2
		l1.2,0.4c2.2-1,3.5-1.6,3.7-1.6v0.3l-1,1v0.4c1.7,3.2,3.3,5.2,4.9,5.8l-0.5,0.6c-1.5-1.2-2.5-1.8-3-1.8h-0.3c0-0.5-0.6-1.6-1.7-3.3
		l-1.5,0.2c-0.4,0-0.8-0.1-1.3-0.4c-0.6,0-1.3,0.1-2.2,0.2c-2,0-3,0.9-3,2.6v10.7c0,1.4,0.4,2.4,1.2,3.1c0.3,1,0.7,2,1.2,3.1
		l-0.5,0.7c-0.4-0.7-0.7-1.5-1-2.6c-0.5,0-0.8,0.2-0.8,0.6v4.4l-0.7,0.9h-8.3v17.2h59v-21C329.1,53.2,328.9,53.2,328.7,53.1z
		 M287.5,24.4h-0.1v-0.3h0.1V24.4z M291.3,28.9c0,0.7-0.5,1-1.5,1h-0.4v-0.2C289.5,29.5,290.1,29.2,291.3,28.9L291.3,28.9l0.1,0
		C291.4,28.8,291.3,28.9,291.3,28.9z M286.3,40.8c0-0.9,0.5-1.5,1.5-1.7v0.2c-0.3,0.3-0.7,0.9-1.2,1.9c-0.2-0.1-0.3-0.1-0.3-0.2
		V40.8z M286.3,43.4L286.3,43.4l0.5,0.3c-0.1,0.3-0.2,0.4-0.3,0.4h-0.2V43.4z M288.9,43.3l-0.6-0.9v-0.3h0.1c0.5,0,0.8,0.1,0.9,0.3
		c-0.1,0-0.2,0.2-0.2,0.4v0.1L288.9,43.3z M299,26.2v1c0,0-1.1,0.4-3.2,0.9h-1.5c1.7-0.6,2.6-1,2.6-1l1,0.2L299,26.2v-0.1h0.1
		L299,26.2z M326.2,72.9c0-0.1-0.1-0.1-0.1-0.2h0.1C326.2,72.7,326.2,72.8,326.2,72.9z"/>
</g>
</svg>
